# xmcd
#
# Track frame offsets:
#	150
#	14224
#	29993
#	40743
#	51427
#	67004
#	81049
#	91212
#	101941
#	117285
#
# Disc length: 1710 seconds
#
# Revision: 1
# Processed by: cddbd v1.5.2PL0 Copyright (c) Steve Scherf et al.
# Submitted via: audiograbber 1.83.01
#
DISCID=9006ac0a
DTITLE=Various Artist - Silver Spurs Classic Country Hits Disc 2
DYEAR=1900
DGENRE=Country
TTITLE0=Willie Nelson (Live) - Undo The Wrong (Right)
TTITLE1=Kenny Rogers - For The Good Times
TTITLE2=Dolly Parton - It Wasn't God Who Made Honky Tonk Angels
TTITLE3=Don Williams - Always Something There To Remind Me
TTITLE4=Exile - Crazy For Your Love
TTITLE5=Faron Young - Chapel In The Moonlight
TTITLE6=Ferlin Husky - Gone
TTITLE7=Sons Of The Pioneers - Somebody's Bigger Than You and I
TTITLE8=Holly Dunn - Daddy's Hands
TTITLE9=Jack Greene - There Goes My Everything
EXTD=Disc 2 of 3 disc set
EXTT0=
EXTT1=
EXTT2=
EXTT3=
EXTT4=
EXTT5=
EXTT6=
EXTT7=
EXTT8=
EXTT9=
PLAYORDER=
